<svg xmlns="http://www.w3.org/2000/svg" viewBox="0 0 240 180" role="img" aria-label="생크림 케이크">
  <rect width="240" height="180" fill="#f8f5f0" />
  <rect y="120" width="240" height="60" fill="#f1e0d6" />
  <rect x="60" y="70" width="120" height="70" rx="10" fill="#fff7fb" stroke="#f3c9cf" stroke-width="4" />
  <rect x="60" y="110" width="120" height="30" rx="8" fill="#ffe0ec" />
  <path d="M60 110 C75 95 90 125 105 110 C120 95 135 125 150 110 C165 95 180 125 195 110" fill="#ffd6e8" />
  <rect x="114" y="45" width="12" height="30" fill="#f7c59f" />
  <polygon points="120,35 126,45 114,45" fill="#ff8fab" />
  <path d="M120 40 C121 32 129 30 133 38" stroke="#ffd166" stroke-width="3" fill="none" />
  <circle cx="90" cy="95" r="8" fill="#f38ba0" />
  <circle cx="120" cy="88" r="7" fill="#95d5b2" />
  <circle cx="150" cy="96" r="8" fill="#8ecae6" />
</svg>
