<svg xmlns="http://www.w3.org/2000/svg" viewBox="0 0 240 180" role="img" aria-label="산속 캠핑">
  <defs>
    <linearGradient id="night" x1="0" x2="0" y1="0" y2="1">
      <stop offset="0%" stop-color="#0c1b33" />
      <stop offset="100%" stop-color="#16324f" />
    </linearGradient>
  </defs>
  <rect width="240" height="180" fill="url(#night)" />
  <circle cx="200" cy="30" r="16" fill="#ffe29f" opacity="0.9" />
  <polygon points="30,170 60,90 90,170" fill="#1f5e3d" />
  <polygon points="70,170 110,95 150,170" fill="#2c8c57" />
  <polygon points="120,170 160,90 200,170" fill="#1f5e3d" />
  <polygon points="100,170 140,80 180,170" fill="#f7c873" stroke="#d99936" stroke-width="4" />
  <line x1="50" y1="170" x2="190" y2="170" stroke="#2f3d4a" stroke-width="6" />
  <ellipse cx="140" cy="140" rx="18" ry="6" fill="#c26c34" />
  <ellipse cx="120" cy="140" rx="18" ry="6" fill="#d78d4b" />
  <ellipse cx="130" cy="132" rx="10" ry="18" fill="#f4a261" />
  <path d="M130 120 C120 110 138 100 130 88 C140 96 148 110 140 122" fill="#ffb347" stroke="#f77f00" stroke-width="3" />
  <circle cx="180" cy="50" r="2" fill="#f6e6b4" />
  <circle cx="30" cy="40" r="2" fill="#f6e6b4" />
  <circle cx="60" cy="60" r="2" fill="#f6e6b4" />
  <circle cx="90" cy="30" r="2" fill="#f6e6b4" />
</svg>
