<svg xmlns="http://www.w3.org/2000/svg" viewBox="0 0 240 180" role="img" aria-label="비 오는 거리">
  <defs>
    <linearGradient id="rainSky" x1="0" x2="0" y1="0" y2="1">
      <stop offset="0%" stop-color="#6d8faf" />
      <stop offset="100%" stop-color="#4c657e" />
    </linearGradient>
  </defs>
  <rect width="240" height="180" fill="url(#rainSky)" />
  <rect y="120" width="240" height="60" fill="#8898a7" />
  <rect x="40" y="70" width="60" height="50" fill="#cfd8e2" />
  <rect x="140" y="60" width="50" height="60" fill="#b4c2d1" />
  <rect x="70" y="90" width="18" height="30" fill="#8da0b5" />
  <rect x="155" y="85" width="14" height="35" fill="#8da0b5" />
  <polygon points="110,120 130,70 150,120" fill="#e85d75" stroke="#d43f5e" stroke-width="4" />
  <polygon points="125,120 130,100 135,120" fill="#f8bbc6" />
  <rect x="122" y="118" width="16" height="40" fill="#e2e6ea" />
  <circle cx="130" cy="60" r="12" fill="#f6e6b4" opacity="0.7" />
  <g stroke="#cde4ff" stroke-width="2" stroke-linecap="round" opacity="0.8">
    <line x1="30" y1="30" x2="20" y2="70" />
    <line x1="60" y1="20" x2="50" y2="60" />
    <line x1="90" y1="25" x2="80" y2="65" />
    <line x1="170" y1="15" x2="160" y2="55" />
    <line x1="200" y1="25" x2="190" y2="65" />
  </g>
</svg>
