<svg xmlns="http://www.w3.org/2000/svg" viewBox="0 0 240 180" role="img" aria-label="증기 기관차">
  <rect width="240" height="180" fill="#e5eef7" />
  <rect y="120" width="240" height="60" fill="#b8c7d6" />
  <rect y="135" width="240" height="45" fill="#9aaec2" />
  <rect x="30" y="110" width="140" height="40" rx="6" fill="#3e5366" />
  <rect x="70" y="80" width="60" height="40" rx="4" fill="#4f6b82" />
  <rect x="130" y="95" width="40" height="25" rx="4" fill="#f2c14e" />
  <rect x="50" y="95" width="24" height="18" rx="3" fill="#c4d5e5" />
  <circle cx="60" cy="150" r="14" fill="#d7e3ef" stroke="#3e5366" stroke-width="4" />
  <circle cx="110" cy="150" r="14" fill="#d7e3ef" stroke="#3e5366" stroke-width="4" />
  <circle cx="160" cy="150" r="14" fill="#d7e3ef" stroke="#3e5366" stroke-width="4" />
  <rect x="170" y="100" width="18" height="34" rx="4" fill="#3e5366" />
  <rect x="176" y="70" width="8" height="32" fill="#3e5366" />
  <rect x="178" y="60" width="4" height="14" fill="#f2c14e" />
  <path d="M176 70 Q166 60 150 65" stroke="#bdcfe0" stroke-width="6" fill="none" stroke-linecap="round" />
  <line x1="30" y1="160" x2="200" y2="160" stroke="#38495c" stroke-width="6" />
  <line x1="30" y1="166" x2="200" y2="166" stroke="#c7d4e2" stroke-width="4" />
</svg>
